<svg width="22" height="22" viewBox="0 0 22 22" fill="none" xmlns="http://www.w3.org/2000/svg">
<path d="M5.87961 8.25H16.1206C16.3019 8.25004 16.4791 8.30382 16.6298 8.40455C16.7805 8.50528 16.8979 8.64843 16.9673 8.8159C17.0367 8.98338 17.0548 9.16766 17.0195 9.34545C16.9841 9.52324 16.8968 9.68655 16.7687 9.81475L11.6482 14.9352C11.4763 15.1071 11.2432 15.2036 11.0001 15.2036C10.757 15.2036 10.5239 15.1071 10.352 14.9352L5.23152 9.81475C5.10336 9.68655 5.01609 9.52324 4.98074 9.34545C4.94538 9.16766 4.96354 8.98338 5.0329 8.8159C5.10227 8.64843 5.21973 8.50528 5.37044 8.40455C5.52114 8.30382 5.69834 8.25004 5.87961 8.25Z" fill="#010000" fill-opacity="0.3"/>
</svg>
