<svg width="171" height="59" viewBox="0 0 171 59" fill="none" xmlns="http://www.w3.org/2000/svg">
<path d="M46.436 7.8397H47.1783C49.0512 3.69655 53.064 3.03025 57.115 3.03025H62.477V49.2641C62.477 51.4013 62.04 53.4073 59.5116 53.4073V54.2083H72.4138V53.4073C69.8854 53.4073 69.4484 51.4048 69.4484 49.2641V3.03025H74.8104C78.8649 3.03025 82.8742 3.7001 84.7471 7.8397H85.4894L84.9656 1.51334H46.9598L46.436 7.8397Z" fill="#010000"/>
<path d="M35.8684 8.72932C38.9621 13.4502 40.5333 19.5958 40.5333 27.1697C40.5333 34.7401 38.9656 40.9318 35.8684 45.6987C32.6844 50.4656 28.8069 52.8721 24.2321 52.8721C19.5672 52.8721 15.6446 50.4231 12.4641 45.6101C9.2802 40.7546 7.67089 34.6089 7.67089 27.1697C7.67089 19.7305 9.28366 13.5849 12.4641 8.72932C15.6411 3.9624 19.5672 1.55944 24.2287 1.55944C28.8069 1.55944 32.6844 3.9624 35.8684 8.72932ZM7.53563 7.61645C2.95744 12.6067 0.692627 19.1528 0.692627 27.1697C0.692627 35.098 2.91582 41.6016 7.44892 46.6769C11.9369 51.7096 17.5175 54.2047 24.2321 54.2047C30.9017 54.2047 36.3921 51.7096 40.8385 46.6769C45.3265 41.6441 47.5948 35.1406 47.5948 27.1697C47.5948 19.1988 45.33 12.6492 40.8385 7.61645C36.3921 2.53764 30.8983 0 24.2287 0C17.6042 0 12.0236 2.53764 7.53563 7.61645Z" fill="#010000"/>
<path d="M159.975 9.27865C162.153 12.9752 163.246 17.7422 163.246 23.6645C163.246 29.5868 162.157 34.3998 159.975 38.0964C157.707 41.8391 155.005 43.6643 151.779 43.6643C148.509 43.6643 145.72 41.793 143.497 38.0539C141.232 34.2687 140.098 29.4592 140.098 23.668C140.098 17.8768 141.232 13.0674 143.497 9.2822C145.72 5.58561 148.509 3.71428 151.779 3.71428C155.008 3.71074 157.71 5.58207 159.975 9.27865ZM100.129 34.6656C101.697 32.0394 104.489 30.3878 107.583 30.3878H109.109C112.771 30.3878 115.605 29.0977 117.609 26.4679C119.614 23.8417 120.617 20.5881 120.617 16.7569C120.617 12.9717 119.614 9.7642 117.609 7.13442C115.518 4.50818 112.684 3.21455 109.109 3.21455H100.129V34.6656ZM100.129 49.4555C100.129 51.6387 100.566 53.5987 103.095 53.5987V54.3997H90.1924V53.5987C92.7208 53.5987 93.1127 51.6387 93.1127 49.4555V6.60634C93.1127 4.60033 92.4607 2.46319 90.1924 2.46319V1.70473H112.726C117.218 1.70473 120.79 3.17557 123.578 6.15977C126.28 9.23258 127.588 12.752 127.588 16.7604C127.588 20.7264 126.28 24.2883 123.578 27.315C121.137 29.9873 117.956 31.4121 114.075 31.6814L120.918 41.9702C130.116 55.8669 150.687 59.964 166.728 46.7371L167.252 47.4956C148.422 67.4954 123.488 58.0076 114.727 44.7772L106.185 31.8586C102.786 32.5285 100.126 35.5127 100.126 39.1632V49.4555H100.129ZM138.53 8.16578C134.913 12.1317 133.127 17.2956 133.127 23.668C133.127 29.9483 134.913 35.1157 138.489 39.1242C142.02 43.0902 146.466 45.0926 151.783 45.0926C157.058 45.0926 161.414 43.0902 164.945 39.1242C168.518 35.1583 170.307 29.9944 170.307 23.668C170.307 17.3417 168.521 12.1778 164.945 8.16578C161.414 4.15731 157.055 2.1513 151.783 2.1513C146.553 2.1513 142.106 4.15731 138.53 8.16578Z" fill="#010000"/>
</svg>
