<svg width="201" height="54" viewBox="0 0 201 54" fill="none" xmlns="http://www.w3.org/2000/svg">
<path d="M27.73 53.84C23.81 53.84 20.17 53.1633 16.81 51.81C13.45 50.4567 10.51 48.5667 7.99 46.14C5.51667 43.6667 3.58 40.7967 2.18 37.53C0.78 34.2633 0.0800002 30.7167 0.0800002 26.89C0.0800002 23.0633 0.756667 19.5167 2.11 16.25C3.51 12.9833 5.44667 10.1367 7.92 7.71C10.44 5.28333 13.38 3.39333 16.74 2.04C20.1 0.686664 23.7633 0.00999796 27.73 0.00999796C31.6967 0.00999796 35.36 0.686664 38.72 2.04C42.08 3.39333 44.9967 5.28333 47.47 7.71C49.99 10.1367 51.9267 12.9833 53.28 16.25C54.68 19.5167 55.38 23.0633 55.38 26.89C55.38 30.7167 54.68 34.2633 53.28 37.53C51.88 40.7967 49.92 43.6667 47.4 46.14C44.9267 48.5667 42.01 50.4567 38.65 51.81C35.29 53.1633 31.65 53.84 27.73 53.84ZM27.73 44.04C30.11 44.04 32.3033 43.62 34.31 42.78C36.3633 41.94 38.16 40.7733 39.7 39.28C41.24 37.74 42.43 35.92 43.27 33.82C44.11 31.72 44.53 29.41 44.53 26.89C44.53 24.37 44.11 22.0833 43.27 20.03C42.43 17.93 41.24 16.11 39.7 14.57C38.16 13.03 36.3633 11.8633 34.31 11.07C32.3033 10.23 30.11 9.81 27.73 9.81C25.35 9.81 23.1333 10.23 21.08 11.07C19.0733 11.8633 17.3 13.03 15.76 14.57C14.22 16.11 13.03 17.93 12.19 20.03C11.35 22.0833 10.93 24.37 10.93 26.89C10.93 29.41 11.35 31.72 12.19 33.82C13.03 35.92 14.22 37.74 15.76 39.28C17.3 40.7733 19.0733 41.94 21.08 42.78C23.1333 43.62 25.35 44.04 27.73 44.04ZM70.3359 53V10.3H57.1059V0.849995H94.2059V10.3H81.1859V53H70.3359ZM99.579 53V0.849995H119.529C123.122 0.849995 126.296 1.48 129.049 2.74C131.849 4 134.042 5.86666 135.629 8.34C137.216 10.8133 138.009 13.87 138.009 17.51C138.009 21.0567 137.192 24.09 135.559 26.61C133.926 29.0833 131.732 30.95 128.979 32.21L140.879 53H128.699L115.819 29.97L122.819 34.1H110.429V53H99.579ZM110.429 24.65H119.599C121.139 24.65 122.469 24.3467 123.589 23.74C124.709 23.1333 125.572 22.2933 126.179 21.22C126.832 20.1467 127.159 18.91 127.159 17.51C127.159 16.0633 126.832 14.8033 126.179 13.73C125.572 12.6567 124.709 11.8167 123.589 11.21C122.469 10.6033 121.139 10.3 119.599 10.3H110.429V24.65ZM172.378 53.84C168.458 53.84 164.818 53.1633 161.458 51.81C158.098 50.4567 155.158 48.5667 152.638 46.14C150.165 43.6667 148.228 40.7967 146.828 37.53C145.428 34.2633 144.728 30.7167 144.728 26.89C144.728 23.0633 145.405 19.5167 146.758 16.25C148.158 12.9833 150.095 10.1367 152.568 7.71C155.088 5.28333 158.028 3.39333 161.388 2.04C164.748 0.686664 168.412 0.00999796 172.378 0.00999796C176.345 0.00999796 180.008 0.686664 183.368 2.04C186.728 3.39333 189.645 5.28333 192.118 7.71C194.638 10.1367 196.575 12.9833 197.928 16.25C199.328 19.5167 200.028 23.0633 200.028 26.89C200.028 30.7167 199.328 34.2633 197.928 37.53C196.528 40.7967 194.568 43.6667 192.048 46.14C189.575 48.5667 186.658 50.4567 183.298 51.81C179.938 53.1633 176.298 53.84 172.378 53.84ZM172.378 44.04C174.758 44.04 176.952 43.62 178.958 42.78C181.012 41.94 182.808 40.7733 184.348 39.28C185.888 37.74 187.078 35.92 187.918 33.82C188.758 31.72 189.178 29.41 189.178 26.89C189.178 24.37 188.758 22.0833 187.918 20.03C187.078 17.93 185.888 16.11 184.348 14.57C182.808 13.03 181.012 11.8633 178.958 11.07C176.952 10.23 174.758 9.81 172.378 9.81C169.998 9.81 167.782 10.23 165.728 11.07C163.722 11.8633 161.948 13.03 160.408 14.57C158.868 16.11 157.678 17.93 156.838 20.03C155.998 22.0833 155.578 24.37 155.578 26.89C155.578 29.41 155.998 31.72 156.838 33.82C157.678 35.92 158.868 37.74 160.408 39.28C161.948 40.7733 163.722 41.94 165.728 42.78C167.782 43.62 169.998 44.04 172.378 44.04Z" fill="white"/>
</svg>
